<svg height="686.326" width="668.317" xml:space="preserve" y="0" x="0" id="Layer_1" version="1.1" xmlns="http://www.w3.org/2000/svg">
  <style id="style845" type="text/css">
    .st3{fill:#104667;stroke:#104667;stroke-miterlimit:10}
  </style>
  <g style="stroke-width:1.31651" transform="matrix(6.60175 0 0 6.77408 -263.025 -265.15)" id="g865">
    <path style="stroke-width:1.31651;fill:none" id="path849" d="M76.7 87.1c-11.6 4.5-21.3 14-27.8 23.8 6.5-9.8 16.3-19.3 27.8-23.8z"/>
    <path style="stroke-width:1.31651;fill:none;stroke:#104667;stroke-miterlimit:10" id="path851" d="M40.9 133.8Z"/>
    <path style="stroke-width:1.31651" id="path853" d="M40.9 133.8Z" class="st3"/>
    <path style="stroke-width:1.31651" id="path855" d="M76.9 86.9c-.1 0-.1 0-.3.1h.1c-11.5 4.6-21.3 14.1-27.8 23.9-5.7 8.6-8.7 17.3-8 22.8h99.3c1.4-11.8-14.6-38-36-46.5 7.6-4.4 12.6-12.5 12.6-21.9-.2-14.2-12-25.5-26.3-25.5-8.9 0-17 4.3-21.8 11.1-2.8 4-4.5 9-4.5 14.2.1 9.1 5 17.3 12.7 21.8z" class="st3"/>
    <path style="stroke-width:1.31651" id="path857" d="M76.6 87.1c.1 0 .1 0 .3-.1-7.6-4.6-12.6-12.8-12.6-21.9 0-5.3 1.7-10.2 4.5-14.2-2.8 4-4.7 9-4.7 14.3.1 9.1 5.1 17.3 12.5 21.9z" class="st3"/>
    <path style="stroke-width:1.31651" id="path859" d="M48.9 110.9c-5.7 8.6-8.8 17.3-8.2 22.9h.1v-.1c-.7-5.6 2.4-14.4 8.1-22.8z" class="st3"/>
    <path style="stroke-width:1.31651" id="path861" d="M40.9 133.8h99.3v-.1z" class="st3"/>
    <path style="stroke-width:1.31651" id="path863" d="M137.3 139.8H43.7c-1.8 0-3.2-1.4-3.2-3.3v-2.3c0-1.8 1.4-3.3 3.2-3.3h93.5c1.8 0 3.2 1.4 3.2 3.3v2.3c.2 1.9-1.4 3.3-3.1 3.3z" class="st3"/>
  </g>
</svg>
